<svg xmlns="http://www.w3.org/2000/svg" viewBox="0 0 640 400" fill="none">
  <rect width="640" height="400" fill="#F9FAFB"/>
  <rect x="40" y="40" width="560" height="320" rx="12" fill="white" stroke="#E5E7EB" stroke-width="2"/>

  <!-- Header -->
  <rect x="40" y="40" width="560" height="60" rx="12" fill="#FAFAFA"/>
  <text x="80" y="78" font-family="system-ui" font-size="18" font-weight="600" fill="#111827">Team Roster</text>

  <!-- Player rows -->
  <rect x="60" y="120" width="520" height="50" rx="6" fill="#FAFAFA"/>
  <circle cx="95" cy="145" r="18" fill="#E5E7EB"/>
  <text x="95" y="150" text-anchor="middle" font-family="system-ui" font-size="12" font-weight="600" fill="#6B7280">12</text>
  <text x="130" y="140" font-family="system-ui" font-size="14" font-weight="500" fill="#111827">John Smith</text>
  <text x="130" y="156" font-family="system-ui" font-size="12" fill="#6B7280">Quarterback</text>
  <rect x="500" y="133" width="60" height="24" rx="4" fill="#E5E7EB"/>

  <rect x="60" y="180" width="520" height="50" rx="6" fill="white" stroke="#E5E7EB"/>
  <circle cx="95" cy="205" r="18" fill="#E5E7EB"/>
  <text x="95" y="210" text-anchor="middle" font-family="system-ui" font-size="12" font-weight="600" fill="#6B7280">24</text>
  <text x="130" y="200" font-family="system-ui" font-size="14" font-weight="500" fill="#111827">Mike Johnson</text>
  <text x="130" y="216" font-family="system-ui" font-size="12" fill="#6B7280">Running Back</text>
  <rect x="500" y="193" width="60" height="24" rx="4" fill="#E5E7EB"/>

  <rect x="60" y="240" width="520" height="50" rx="6" fill="white" stroke="#E5E7EB"/>
  <circle cx="95" cy="265" r="18" fill="#E5E7EB"/>
  <text x="95" y="270" text-anchor="middle" font-family="system-ui" font-size="12" font-weight="600" fill="#6B7280">88</text>
  <text x="130" y="260" font-family="system-ui" font-size="14" font-weight="500" fill="#111827">Jake Williams</text>
  <text x="130" y="276" font-family="system-ui" font-size="12" fill="#6B7280">Wide Receiver</text>
  <rect x="500" y="253" width="60" height="24" rx="4" fill="#E5E7EB"/>

  <!-- Add player button -->
  <rect x="60" y="310" width="140" height="36" rx="6" fill="#111827"/>
  <text x="130" y="333" text-anchor="middle" font-family="system-ui" font-size="14" font-weight="500" fill="white">+ Add Player</text>
</svg>