<svg xmlns="http://www.w3.org/2000/svg" viewBox="0 0 640 400" fill="none">
  <rect width="640" height="400" fill="#F9FAFB"/>

  <rect x="60" y="50" width="260" height="300" rx="12" fill="white" stroke="#E5E7EB" stroke-width="2"/>
  <rect x="60" y="50" width="260" height="45" rx="12" fill="#111827"/>
  <rect x="60" y="70" width="260" height="25" fill="#111827"/>
  <text x="100" y="80" font-family="system-ui" font-size="16" font-weight="600" fill="white">Game Plan</text>
  <text x="230" y="80" font-family="system-ui" font-size="12" fill="#9CA3AF">vs Eagles</text>

  <text x="80" y="120" font-family="system-ui" font-size="12" font-weight="600" fill="#6B7280">1ST DOWN</text>
  <rect x="80" y="130" width="220" height="24" rx="4" fill="#F3F4F6"/>
  <text x="90" y="147" font-family="system-ui" font-size="11" fill="#374151">Power Right, Sweep Left, PA Boot</text>

  <text x="80" y="175" font-family="system-ui" font-size="12" font-weight="600" fill="#6B7280">2ND DOWN</text>
  <rect x="80" y="185" width="220" height="24" rx="4" fill="#F3F4F6"/>
  <text x="90" y="202" font-family="system-ui" font-size="11" fill="#374151">Counter, Slant, Mesh Concept</text>

  <text x="80" y="230" font-family="system-ui" font-size="12" font-weight="600" fill="#6B7280">3RD DOWN</text>
  <rect x="80" y="240" width="220" height="24" rx="4" fill="#F3F4F6"/>
  <text x="90" y="257" font-family="system-ui" font-size="11" fill="#374151">Quick Slant, Snag, Four Verts</text>

  <text x="80" y="285" font-family="system-ui" font-size="12" font-weight="600" fill="#DC2626">RED ZONE</text>
  <rect x="80" y="295" width="220" height="24" rx="4" fill="#FEE2E2"/>
  <text x="90" y="312" font-family="system-ui" font-size="11" fill="#991B1B">Fade, Goal Line Power, PA Flat</text>

  <rect x="340" y="60" width="250" height="280" rx="8" fill="white" stroke="#111827" stroke-width="2"/>

  <rect x="340" y="60" width="250" height="30" fill="#111827"/>
  <text x="465" y="81" text-anchor="middle" font-family="system-ui" font-size="12" font-weight="700" fill="white">QB WRISTBAND - OFFENSE</text>

  <line x1="340" y1="120" x2="590" y2="120" stroke="#374151" stroke-width="1"/>
  <line x1="340" y1="150" x2="590" y2="150" stroke="#374151" stroke-width="1"/>
  <line x1="340" y1="180" x2="590" y2="180" stroke="#374151" stroke-width="1"/>
  <line x1="340" y1="210" x2="590" y2="210" stroke="#374151" stroke-width="1"/>
  <line x1="340" y1="240" x2="590" y2="240" stroke="#374151" stroke-width="1"/>
  <line x1="340" y1="270" x2="590" y2="270" stroke="#374151" stroke-width="1"/>
  <line x1="340" y1="300" x2="590" y2="300" stroke="#374151" stroke-width="1"/>

  <line x1="423" y1="90" x2="423" y2="340" stroke="#374151" stroke-width="1"/>
  <line x1="507" y1="90" x2="507" y2="340" stroke="#374151" stroke-width="1"/>

  <rect x="340" y="90" width="83" height="30" fill="#E5E7EB"/>
  <rect x="423" y="90" width="84" height="30" fill="#E5E7EB"/>
  <rect x="507" y="90" width="83" height="30" fill="#E5E7EB"/>
  <text x="382" y="110" text-anchor="middle" font-family="system-ui" font-size="10" font-weight="600" fill="#374151">RUN</text>
  <text x="465" y="110" text-anchor="middle" font-family="system-ui" font-size="10" font-weight="600" fill="#374151">PASS</text>
  <text x="548" y="110" text-anchor="middle" font-family="system-ui" font-size="10" font-weight="600" fill="#374151">SCREEN</text>

  <text x="348" y="138" font-family="monospace" font-size="9" fill="#111827">11 Power R</text>
  <text x="431" y="138" font-family="monospace" font-size="9" fill="#111827">12 Slant</text>
  <text x="515" y="138" font-family="monospace" font-size="9" fill="#111827">13 WR Scn</text>

  <text x="348" y="168" font-family="monospace" font-size="9" fill="#111827">21 Counter</text>
  <text x="431" y="168" font-family="monospace" font-size="9" fill="#111827">22 Curl</text>
  <text x="515" y="168" font-family="monospace" font-size="9" fill="#111827">23 RB Scn</text>

  <text x="348" y="198" font-family="monospace" font-size="9" fill="#111827">31 Sweep L</text>
  <text x="431" y="198" font-family="monospace" font-size="9" fill="#111827">32 Post</text>
  <text x="515" y="198" font-family="monospace" font-size="9" fill="#111827">33 Bubble</text>

  <text x="348" y="228" font-family="monospace" font-size="9" fill="#111827">41 Dive</text>
  <text x="431" y="228" font-family="monospace" font-size="9" fill="#111827">42 Corner</text>
  <text x="515" y="228" font-family="monospace" font-size="9" fill="#111827">43 Tunnel</text>

  <text x="348" y="258" font-family="monospace" font-size="9" fill="#111827">51 Trap</text>
  <text x="431" y="258" font-family="monospace" font-size="9" fill="#111827">52 Go</text>
  <text x="515" y="258" font-family="monospace" font-size="9" fill="#111827">53 Jailbreak</text>

  <text x="348" y="288" font-family="monospace" font-size="9" fill="#111827">61 QB Snk</text>
  <text x="431" y="288" font-family="monospace" font-size="9" fill="#111827">62 Mesh</text>
  <text x="515" y="288" font-family="monospace" font-size="9" fill="#111827">63 Slip</text>

  <rect x="340" y="300" width="250" height="40" fill="#FEF3C7"/>
  <text x="348" y="318" font-family="monospace" font-size="9" font-weight="600" fill="#92400E">RED: Fade  |  GL Power  |  PA Flat</text>
</svg>