<svg xmlns="http://www.w3.org/2000/svg" viewBox="0 0 640 400" fill="none">
  <rect width="640" height="400" fill="#F9FAFB"/>
  <rect x="80" y="60" width="480" height="280" rx="12" fill="white" stroke="#E5E7EB" stroke-width="2"/>

  <rect x="80" y="60" width="480" height="50" rx="12" fill="#111827"/>
  <rect x="80" y="85" width="480" height="25" fill="#111827"/>
  <text x="120" y="92" font-family="system-ui" font-size="18" font-weight="600" fill="white">Practice Plan</text>
  <text x="440" y="92" font-family="system-ui" font-size="14" fill="#9CA3AF">Tuesday, 4:00 PM</text>

  <rect x="100" y="130" width="4" height="190" rx="2" fill="#E5E7EB"/>

  <circle cx="102" cy="150" r="8" fill="#10B981"/>
  <rect x="130" y="135" width="200" height="30" rx="6" fill="#D1FAE5"/>
  <text x="145" y="155" font-family="system-ui" font-size="13" font-weight="500" fill="#059669">Warm-up and Stretching</text>
  <text x="340" y="155" font-family="system-ui" font-size="12" fill="#6B7280">15 min</text>

  <circle cx="102" cy="195" r="8" fill="#3B82F6"/>
  <rect x="130" y="180" width="200" height="30" rx="6" fill="#DBEAFE"/>
  <text x="145" y="200" font-family="system-ui" font-size="13" font-weight="500" fill="#2563EB">Position Drills</text>
  <text x="340" y="200" font-family="system-ui" font-size="12" fill="#6B7280">20 min</text>

  <circle cx="102" cy="240" r="8" fill="#8B5CF6"/>
  <rect x="130" y="225" width="200" height="30" rx="6" fill="#EDE9FE"/>
  <text x="145" y="245" font-family="system-ui" font-size="13" font-weight="500" fill="#7C3AED">Team Run Plays</text>
  <text x="340" y="245" font-family="system-ui" font-size="12" fill="#6B7280">25 min</text>

  <circle cx="102" cy="285" r="8" fill="#F59E0B"/>
  <rect x="130" y="270" width="200" height="30" rx="6" fill="#FEF3C7"/>
  <text x="145" y="290" font-family="system-ui" font-size="13" font-weight="500" fill="#D97706">7-on-7 Passing</text>
  <text x="340" y="290" font-family="system-ui" font-size="12" fill="#6B7280">20 min</text>

  <circle cx="500" cy="200" r="50" fill="#F3F4F6" stroke="#E5E7EB" stroke-width="2"/>
  <circle cx="500" cy="200" r="40" fill="white"/>
  <path d="M500 170 L500 200 L520 215" stroke="#111827" stroke-width="3" stroke-linecap="round"/>
  <text x="485" y="260" font-family="system-ui" font-size="12" fill="#6B7280">80 min</text>
</svg>