<svg xmlns="http://www.w3.org/2000/svg" viewBox="0 0 640 400" fill="none">
  <rect width="640" height="400" fill="#F9FAFB"/>
  <rect x="40" y="40" width="560" height="320" rx="12" fill="white" stroke="#E5E7EB" stroke-width="2"/>

  <text x="60" y="75" font-family="system-ui" font-size="18" font-weight="600" fill="#111827">Team Analytics</text>

  <rect x="60" y="95" width="160" height="90" rx="8" fill="#D1FAE5"/>
  <text x="80" y="120" font-family="system-ui" font-size="12" font-weight="500" fill="#059669">Success Rate</text>
  <text x="80" y="155" font-family="system-ui" font-size="32" font-weight="700" fill="#047857">68%</text>
  <text x="80" y="175" font-family="system-ui" font-size="11" fill="#059669">+5% vs last game</text>

  <rect x="235" y="95" width="160" height="90" rx="8" fill="#DBEAFE"/>
  <text x="255" y="120" font-family="system-ui" font-size="12" font-weight="500" fill="#2563EB">Yards Per Play</text>
  <text x="255" y="155" font-family="system-ui" font-size="32" font-weight="700" fill="#1D4ED8">5.2</text>
  <text x="255" y="175" font-family="system-ui" font-size="11" fill="#2563EB">Season average: 4.8</text>

  <rect x="410" y="95" width="160" height="90" rx="8" fill="#FEE2E2"/>
  <text x="430" y="120" font-family="system-ui" font-size="12" font-weight="500" fill="#DC2626">Red Zone TD%</text>
  <text x="430" y="155" font-family="system-ui" font-size="32" font-weight="700" fill="#B91C1C">75%</text>
  <text x="430" y="175" font-family="system-ui" font-size="11" fill="#DC2626">6 of 8 trips</text>

  <text x="60" y="220" font-family="system-ui" font-size="14" font-weight="600" fill="#374151">Success by Formation</text>

  <rect x="60" y="240" width="200" height="20" rx="4" fill="#E5E7EB"/>
  <rect x="60" y="240" width="160" height="20" rx="4" fill="#10B981"/>
  <text x="270" y="255" font-family="system-ui" font-size="11" fill="#374151">Shotgun - 80%</text>

  <rect x="60" y="270" width="200" height="20" rx="4" fill="#E5E7EB"/>
  <rect x="60" y="270" width="140" height="20" rx="4" fill="#3B82F6"/>
  <text x="270" y="285" font-family="system-ui" font-size="11" fill="#374151">I-Form - 70%</text>

  <rect x="60" y="300" width="200" height="20" rx="4" fill="#E5E7EB"/>
  <rect x="60" y="300" width="120" height="20" rx="4" fill="#8B5CF6"/>
  <text x="270" y="315" font-family="system-ui" font-size="11" fill="#374151">Wing-T - 60%</text>

  <text x="380" y="220" font-family="system-ui" font-size="14" font-weight="600" fill="#374151">Top Plays</text>

  <rect x="380" y="235" width="180" height="28" rx="4" fill="#F3F4F6"/>
  <text x="395" y="254" font-family="system-ui" font-size="11" fill="#374151">Power Right</text>
  <text x="520" y="254" font-family="system-ui" font-size="11" font-weight="600" fill="#10B981">85%</text>

  <rect x="380" y="268" width="180" height="28" rx="4" fill="#F3F4F6"/>
  <text x="395" y="287" font-family="system-ui" font-size="11" fill="#374151">Slant</text>
  <text x="520" y="287" font-family="system-ui" font-size="11" font-weight="600" fill="#10B981">78%</text>

  <rect x="380" y="301" width="180" height="28" rx="4" fill="#F3F4F6"/>
  <text x="395" y="320" font-family="system-ui" font-size="11" fill="#374151">Counter</text>
  <text x="520" y="320" font-family="system-ui" font-size="11" font-weight="600" fill="#10B981">72%</text>
</svg>